<?xml version="1.0" standalone="no"?>
<!DOCTYPE svg PUBLIC "-//W3C//DTD SVG 20010904//EN"
 "http://www.w3.org/TR/2001/REC-SVG-20010904/DTD/svg10.dtd">
<svg version="1.0" xmlns="http://www.w3.org/2000/svg"
 width="240.000000pt" height="172.000000pt" viewBox="0 0 240.000000 172.000000"
 preserveAspectRatio="xMidYMid meet">

<g transform="translate(0.000000,172.000000) scale(0.100000,-0.100000)"
fill="#000000" stroke="none">
<path d="M880 1564 c-126 -22 -236 -68 -307 -129 -44 -37 -133 -186 -133 -221
0 -36 -45 -93 -130 -163 -47 -39 -88 -71 -91 -71 -4 0 -25 -24 -47 -53 -44
-56 -68 -107 -52 -107 6 0 10 6 10 13 0 34 66 111 157 184 113 89 126 103 148
158 43 106 103 209 143 246 57 53 167 104 270 124 64 13 118 16 225 13 78 -3
151 -8 162 -13 17 -7 18 -6 7 6 -9 10 -52 14 -175 15 -89 1 -173 0 -187 -2z"/>
<path d="M1370 1474 c30 -27 102 -93 160 -148 105 -98 200 -157 252 -155 14 0
-2 9 -37 22 -83 31 -79 29 -217 154 -68 62 -143 126 -168 144 -43 30 -42 29
10 -17z"/>
<path d="M955 1494 c-283 -43 -382 -112 -420 -292 -21 -100 -36 -126 -108
-177 -117 -85 -195 -155 -212 -192 -22 -46 -16 -165 12 -236 44 -110 217 -260
367 -318 203 -79 494 -60 671 42 50 29 75 47 148 112 125 110 195 132 392 124
194 -8 273 12 347 90 61 64 72 142 35 243 -56 146 -115 176 -429 215 -26 4
-80 22 -120 42 -60 30 -96 59 -198 163 -167 169 -183 178 -335 184 -66 2 -133
2 -150 0z m61 -60 c30 -23 33 -29 21 -43 -19 -22 -31 -53 -28 -75 2 -10 -5
-34 -15 -52 -10 -18 -15 -36 -11 -40 10 -10 45 37 53 71 22 102 73 162 122
144 41 -15 24 -96 -33 -163 -49 -57 -9 -89 44 -36 17 17 31 36 31 41 0 12 47
12 55 -1 10 -16 -22 -65 -62 -96 -44 -33 -101 -38 -130 -12 -18 16 -20 16 -48
-2 -35 -23 -69 -26 -86 -7 -10 10 -21 8 -57 -10 -24 -12 -60 -25 -78 -29 -28
-5 -37 -14 -53 -49 -19 -43 -60 -75 -96 -75 -24 0 -65 46 -65 74 0 39 46 85
91 92 32 5 39 11 39 29 0 13 3 30 6 39 5 13 -3 15 -61 9 -66 -6 -67 -6 -63 18
3 21 10 25 67 34 63 10 65 12 73 45 22 89 128 111 128 26 0 -21 -11 -39 -39
-65 -28 -27 -40 -47 -45 -78 -6 -38 -4 -43 13 -43 37 0 106 51 148 111 l43 58
-29 -5 c-33 -7 -36 -3 -45 49 -6 31 -4 38 11 43 10 3 25 9 33 14 23 13 29 12
66 -16z m329 -313 c3 -6 28 -7 54 -4 44 5 52 3 75 -20 34 -34 35 -81 3 -102
-36 -23 -79 -28 -102 -12 -15 11 -23 12 -38 3 -15 -9 -22 -6 -42 16 -23 27
-24 27 -27 5 -3 -25 -30 -31 -113 -24 -16 1 -36 -4 -44 -11 -19 -18 -35 -10
-39 20 -4 32 43 128 63 128 8 0 29 -21 47 -47 l33 -48 3 43 c4 52 24 63 58 32
24 -23 24 -23 24 -3 0 27 32 44 45 24z m-295 -64 c0 -21 -22 -37 -50 -37 -31
0 -51 17 -43 36 7 19 93 19 93 1z m545 -22 c0 -15 -8 -21 -34 -23 -38 -4 -57
9 -47 33 4 12 16 15 43 13 30 -2 38 -7 38 -23z m-1030 -67 c28 -13 55 -55 55
-85 0 -41 -49 -92 -120 -125 -79 -37 -78 -34 -59 -147 22 -139 70 -158 149
-60 l45 57 16 135 c18 143 33 181 76 193 66 18 86 -35 55 -142 -11 -38 -23
-78 -28 -89 -7 -17 -5 -17 16 3 30 28 68 38 89 25 21 -13 28 -50 30 -145 1
-94 14 -136 36 -118 8 7 15 29 15 49 1 89 40 161 96 175 31 8 76 -15 93 -47
23 -44 -14 -84 -89 -97 -32 -5 -35 -8 -33 -40 2 -38 24 -60 54 -53 11 3 44 33
74 67 53 59 55 63 55 121 0 71 21 164 44 200 21 33 68 34 90 3 35 -50 6 -203
-47 -247 -18 -14 -23 -46 -8 -55 11 -7 70 65 105 130 25 46 32 52 74 60 45 9
47 10 60 59 17 58 27 74 60 86 18 7 31 5 48 -6 32 -21 32 -68 -1 -111 l-26
-34 23 9 c22 8 33 23 60 86 18 41 59 62 95 49 54 -19 38 -96 -28 -130 -21 -10
-28 -19 -21 -26 24 -24 132 78 132 126 0 28 38 56 74 56 25 0 38 6 50 25 27
42 86 28 86 -19 -1 -12 -9 -38 -19 -60 -18 -38 -18 -76 0 -76 5 0 18 5 28 12
20 12 51 5 51 -12 0 -20 -53 -60 -80 -60 -15 0 -35 9 -44 19 -17 19 -18 19
-37 0 -21 -21 -69 -25 -87 -7 -9 9 -18 6 -41 -16 -55 -53 -135 -63 -166 -22
-16 21 -93 -28 -101 -63 -10 -46 -13 -51 -38 -63 -20 -9 -30 -8 -51 6 -34 23
-33 59 5 93 40 35 38 44 -6 30 -28 -9 -41 -21 -60 -59 -36 -72 -104 -138 -140
-138 -17 0 -38 6 -48 13 -16 12 -25 7 -76 -45 -51 -51 -63 -58 -97 -58 -21 0
-48 7 -61 15 -19 14 -24 14 -46 0 -39 -26 -67 -16 -93 34 -19 37 -23 59 -23
133 0 48 -3 88 -7 88 -12 0 -50 -62 -63 -103 -6 -20 -15 -68 -18 -105 -6 -58
-10 -67 -28 -70 -17 -2 -24 5 -33 29 -6 18 -11 38 -11 45 0 7 -5 25 -10 40
l-11 27 -15 -22 c-26 -37 -95 -81 -126 -81 -47 0 -68 18 -99 83 -23 49 -29 76
-29 130 0 37 -3 67 -8 67 -11 0 -52 -30 -52 -38 0 -4 10 -12 23 -17 12 -6 22
-17 22 -25 0 -21 -51 -25 -81 -5 -48 31 -19 99 56 129 33 13 40 20 40 44 0 44
50 134 89 159 38 26 59 28 96 11z"/>
<path d="M652 1098 c-17 -17 -15 -38 3 -38 12 0 35 28 35 44 0 11 -26 6 -38
-6z"/>
<path d="M1420 1045 c0 -8 5 -15 10 -15 6 0 10 7 10 15 0 8 -4 15 -10 15 -5 0
-10 -7 -10 -15z"/>
<path d="M485 894 c-21 -23 -50 -92 -42 -100 7 -7 83 44 100 68 17 22 18 30 7
43 -18 22 -38 19 -65 -11z"/>
<path d="M724 843 c-3 -16 -8 -35 -10 -43 -3 -10 -2 -11 4 -5 10 11 24 75 17
75 -3 0 -7 -12 -11 -27z"/>
<path d="M1912 835 c-12 -26 -8 -65 6 -65 4 0 15 11 24 24 17 23 17 25 0 46
l-18 22 -12 -27z"/>
<path d="M1263 741 c-7 -36 -11 -66 -9 -68 9 -9 27 59 24 93 -3 36 -4 35 -15
-25z"/>
<path d="M1024 618 c-19 -21 -19 -21 6 -15 14 4 28 7 33 7 4 0 7 7 7 15 0 22
-24 18 -46 -7z"/>
<path d="M701 594 c0 -11 3 -14 6 -6 3 7 2 16 -1 19 -3 4 -6 -2 -5 -13z"/>
<path d="M1828 1163 c12 -2 30 -2 40 0 9 3 -1 5 -23 4 -22 0 -30 -2 -17 -4z"/>
<path d="M1925 1151 c80 -17 141 -22 122 -11 -9 6 -50 13 -90 15 -57 4 -64 3
-32 -4z"/>
<path d="M2110 1102 c0 -4 16 -18 36 -31 47 -33 69 -65 100 -152 22 -62 26
-85 22 -150 -4 -62 -10 -85 -35 -125 -42 -69 -129 -122 -220 -135 -37 -5 -72
-14 -78 -20 -7 -8 -4 -10 10 -6 11 3 43 9 70 13 98 13 196 79 237 159 27 51
35 167 18 232 -22 84 -69 161 -117 193 -23 16 -43 26 -43 22z"/>
<path d="M125 675 c10 -169 162 -354 370 -451 28 -13 59 -24 70 -23 11 0 -3 9
-30 18 -73 26 -181 99 -251 168 -78 78 -131 178 -149 281 l-14 77 4 -70z"/>
<path d="M1707 513 c-15 -15 -7 -43 13 -43 11 0 20 -5 20 -12 0 -6 3 -9 6 -6
5 6 -22 68 -30 68 -1 0 -6 -3 -9 -7z"/>
<path d="M1840 497 c0 -27 17 -47 40 -47 12 1 11 4 -4 15 -14 11 -16 15 -5 15
9 1 7 5 -6 12 -19 12 -19 12 5 19 l25 7 -27 1 c-23 1 -28 -3 -28 -22z"/>
<path d="M1630 490 c0 -11 7 -20 15 -20 18 0 20 -16 3 -24 -7 -3 -4 -5 6 -3
27 3 32 27 7 34 -23 6 -28 19 -8 26 7 3 5 6 -5 6 -12 1 -18 -6 -18 -19z"/>
<path d="M1770 469 c0 -5 9 -9 20 -9 11 0 20 2 20 4 0 2 -9 6 -20 9 -11 3 -20
1 -20 -4z"/>
<path d="M1531 451 c-12 -8 -12 -13 3 -35 19 -29 22 -31 24 -13 0 6 2 21 4 31
3 22 -11 30 -31 17z"/>
<path d="M1462 388 c3 -25 34 -36 51 -19 14 14 -9 41 -35 41 -14 0 -19 -6 -16
-22z m38 -4 c0 -17 -22 -14 -28 4 -2 7 3 12 12 12 9 0 16 -7 16 -16z"/>
<path d="M1401 343 c-1 -21 33 -42 46 -29 4 3 -1 6 -11 6 -9 0 -21 10 -26 23
l-9 22 0 -22z"/>
<path d="M1342 318 c-7 -10 -3 -18 15 -32 25 -18 25 -18 14 3 -7 12 -9 26 -6
31 9 15 -11 12 -23 -2z"/>
<path d="M1275 270 c-10 -16 4 -30 33 -31 l27 0 -25 -11 c-16 -7 -20 -12 -12
-15 18 -7 47 22 38 36 -4 7 -18 8 -34 4 -24 -6 -26 -5 -13 10 8 10 9 17 3 17
-6 0 -14 -4 -17 -10z"/>
<path d="M1175 196 c-35 -18 -60 -21 -205 -24 -91 -2 -194 1 -230 7 -36 6 -85
12 -110 15 -36 4 -39 3 -15 -4 81 -22 167 -30 336 -30 168 0 188 2 224 21 43
23 66 40 50 38 -6 -1 -28 -11 -50 -23z"/>
</g>
</svg>
